<svg width="45" height="46" viewBox="0 0 45 46" fill="none" xmlns="http://www.w3.org/2000/svg">
<g clip-path="url(#clip0_1864_17591)">
<path d="M33.072 10.7503L44.4437 22.1813C44.6616 22.4003 44.7839 22.6972 44.7839 23.0067C44.7839 23.3163 44.6616 23.6131 44.4437 23.8321L22.9409 45.4211C22.7956 45.5662 22.5991 45.6476 22.3943 45.6476C22.1894 45.6476 21.9929 45.5662 21.8476 45.4211L18.0751 41.6367C18.003 41.5644 17.9458 41.4785 17.9068 41.384C17.8677 41.2895 17.8477 41.1881 17.8477 41.0858C17.8477 40.9835 17.8677 40.8822 17.9068 40.7876C17.9458 40.6931 18.003 40.6072 18.0751 40.5349L35.5224 23.0145L28.21 15.6365C28.1379 15.5642 28.0807 15.4783 28.0417 15.3838C28.0027 15.2893 27.9826 15.1879 27.9826 15.0856C27.9826 14.9833 28.0027 14.8819 28.0417 14.7874C28.0807 14.6929 28.1379 14.607 28.21 14.5347L31.9825 10.7503C32.1276 10.6064 32.3233 10.5258 32.5273 10.5258C32.7312 10.5258 32.9269 10.6064 33.072 10.7503Z" fill="#40D457"/>
<path d="M22.9401 0.576808L26.7126 4.36121C26.7847 4.43353 26.8419 4.5194 26.8809 4.61393C26.9199 4.70846 26.94 4.80979 26.94 4.91212C26.94 5.01445 26.9199 5.11578 26.8809 5.21031C26.8419 5.30485 26.7847 5.39072 26.7126 5.46304L9.2654 22.9834L16.5777 30.3575C16.6498 30.4299 16.707 30.5157 16.746 30.6103C16.7851 30.7048 16.8051 30.8061 16.8051 30.9084C16.8051 31.0108 16.7851 31.1121 16.746 31.2067C16.707 31.3012 16.6498 31.3871 16.5777 31.4594L12.8052 35.2438C12.66 35.3888 12.4634 35.4702 12.2586 35.4702C12.0537 35.4702 11.8572 35.3888 11.7119 35.2438L0.340163 23.8283C0.122343 23.6093 0 23.3124 0 23.0029C0 22.6933 0.122343 22.3965 0.340163 22.1775L21.8429 0.584591C21.9144 0.511678 21.9995 0.453635 22.0934 0.413779C22.1873 0.373923 22.288 0.353038 22.3899 0.352314C22.4918 0.351591 22.5929 0.371041 22.6873 0.409561C22.7817 0.448081 22.8676 0.504918 22.9401 0.576808Z" fill="#40D457"/>
</g>
<defs>
<clipPath id="clip0_1864_17591">
<rect width="44.7832" height="45.2953" fill="white" transform="translate(0 0.352295)"/>
</clipPath>
</defs>
</svg>
